<?xml version="1.0" standalone="no"?>
<!DOCTYPE svg PUBLIC "-//W3C//DTD SVG 20010904//EN"
 "http://www.w3.org/TR/2001/REC-SVG-20010904/DTD/svg10.dtd">
<svg version="1.0" xmlns="http://www.w3.org/2000/svg"
 width="400.000000pt" height="400.000000pt" viewBox="0 0 400.000000 400.000000"
 preserveAspectRatio="xMidYMid meet">
<metadata>
Created by potrace 1.11, written by Peter Selinger 2001-2013
</metadata>
<g transform="translate(0.000000,400.000000) scale(0.100000,-0.100000)"
fill="#000000" stroke="none">
<path d="M1760 2965 c-254 -44 -523 -155 -677 -281 -23 -19 -44 -34 -47 -34
-3 0 -6 15 -6 33 -1 77 -74 177 -165 225 -41 22 -64 26 -130 26 -68 1 -89 -3
-137 -27 -180 -88 -224 -334 -85 -480 34 -37 35 -39 22 -71 -23 -54 -35 -189
-35 -381 0 -318 25 -422 119 -491 50 -36 126 -69 200 -85 45 -9 47 -12 88 -92
72 -140 168 -230 385 -359 257 -153 461 -219 678 -220 189 -1 359 45 572 154
255 130 431 279 503 423 21 44 40 81 41 83 1 2 28 10 60 19 75 19 151 57 192
97 69 64 86 130 97 371 8 162 -8 404 -31 471 l-15 45 36 41 c57 63 75 110 75
203 0 93 -18 140 -76 205 -159 175 -458 102 -516 -127 -6 -24 -11 -43 -12 -43
-1 0 -46 29 -99 64 -166 110 -385 192 -611 231 -107 18 -320 18 -426 0z m497
-209 c337 -84 584 -247 686 -451 51 -102 62 -158 61 -320 -1 -282 -79 -557
-194 -688 -55 -62 -254 -195 -394 -262 -173 -83 -258 -106 -406 -112 -146 -6
-246 13 -390 74 -199 84 -441 243 -500 328 -105 152 -170 400 -172 650 -1 154
12 225 58 323 40 84 135 191 229 257 127 90 336 177 502 209 43 8 87 17 98 20
11 3 88 3 170 1 119 -3 171 -9 252 -29z m-1482 -20 c48 -21 67 -54 64 -118 -2
-40 5 -67 26 -111 15 -32 30 -76 32 -99 6 -38 7 -40 34 -34 34 7 35 2 9 -52
-70 -144 -78 -459 -19 -674 11 -39 18 -72 16 -74 -6 -7 -154 34 -187 51 -52
27 -55 44 -55 350 0 328 0 329 82 360 47 18 53 23 53 49 0 16 -12 55 -27 88
-23 52 -29 59 -49 54 -38 -10 -100 21 -118 59 -9 18 -16 41 -16 50 0 33 32 83
63 99 40 19 49 20 92 2z m2469 0 c44 -18 66 -52 66 -101 0 -22 -7 -51 -16 -64
-21 -30 -77 -53 -109 -45 -23 6 -27 1 -49 -47 -13 -30 -26 -70 -29 -91 -5 -33
-3 -37 21 -43 15 -4 41 -13 59 -22 53 -25 58 -55 58 -348 0 -305 -4 -323 -69
-355 -39 -19 -176 -53 -183 -46 -2 2 4 23 12 47 29 81 45 209 45 358 0 161
-15 251 -55 338 -14 31 -25 57 -25 60 0 3 13 2 29 -2 29 -6 30 -5 40 47 7 29
24 76 39 103 23 43 26 55 18 88 -12 48 12 98 58 121 39 19 48 19 90 2z"/>
<path d="M1282 2119 c-78 -30 -128 -82 -137 -142 -6 -41 -4 -53 19 -87 27 -41
78 -75 101 -66 7 2 45 44 85 91 40 48 87 96 104 106 41 26 109 21 196 -14 l65
-27 45 45 c64 63 128 89 215 90 84 0 168 -35 221 -91 l34 -35 74 25 c138 48
176 34 286 -105 45 -57 77 -89 90 -89 53 0 138 121 125 180 -8 36 -62 85 -129
116 l-51 24 -645 -1 c-624 0 -647 -1 -698 -20z"/>
<path d="M1913 1950 c-106 -48 -120 -195 -25 -268 46 -35 135 -39 178 -6 52
38 69 71 69 132 0 70 -28 115 -89 143 -52 24 -80 23 -133 -1z"/>
<path d="M1489 1928 c-9 -7 -43 -47 -77 -89 -89 -111 -127 -131 -200 -106 -23
8 -42 11 -42 6 0 -16 49 -120 71 -150 12 -17 33 -35 47 -40 179 -68 1122 -71
1357 -4 42 12 54 22 76 57 15 24 36 69 48 102 20 54 20 58 4 51 -96 -41 -101
-42 -148 -15 -26 15 -72 59 -112 110 -79 98 -95 104 -184 71 l-54 -21 0 -87
c0 -72 -5 -96 -23 -130 -33 -64 -79 -111 -136 -141 -44 -23 -63 -27 -141 -27
-81 0 -95 3 -144 30 -59 33 -100 77 -134 145 -17 34 -22 64 -23 125 l-1 79
-54 23 c-61 25 -108 29 -130 11z"/>
</g>
</svg>
