<?xml version="1.0" standalone="no"?><!-- Generator: Gravit.io --><svg xmlns="http://www.w3.org/2000/svg" xmlns:xlink="http://www.w3.org/1999/xlink" style="isolation:isolate" viewBox="0 0 479 198" width="479" height="198"><defs><clipPath id="_clipPath_4RpcicKAAgstWfRQ3AYHOPvpnmmpHg6o"><rect width="478.733" height="198.449"/></clipPath></defs><g clip-path="url(#_clipPath_4RpcicKAAgstWfRQ3AYHOPvpnmmpHg6o)"><g><g><g><path d=" M 166.733 144.199 C 166.733 154.929 166.733 170.999 166.733 192.399 C 166.733 194.089 166.163 195.499 165.013 196.649 C 163.813 197.849 162.403 198.449 160.763 198.449 C 155.373 198.449 147.333 198.449 136.663 198.449 C 134.973 198.449 133.563 197.849 132.413 196.649 C 131.213 195.509 130.613 194.089 130.613 192.399 C 130.613 188.369 130.613 182.319 130.613 174.259 C 130.613 170.939 130.613 166.799 130.613 161.839 C 130.613 156.769 130.613 150.889 130.613 144.189 C 130.613 142.559 131.213 141.139 132.413 139.939 C 133.563 138.799 134.973 138.219 136.663 138.219 C 142.003 138.219 150.033 138.219 160.763 138.219 C 162.393 138.219 163.813 138.789 165.013 139.939 C 166.163 141.149 166.733 142.559 166.733 144.199 Z  M 142.633 186.429 C 145.353 186.429 149.383 186.429 154.723 186.429 C 154.723 185.889 154.723 185.099 154.723 184.059 C 154.723 176.539 154.723 165.269 154.723 150.239 C 152.053 150.239 148.023 150.239 142.633 150.239 C 142.633 154.269 142.633 160.289 142.633 168.289 C 142.633 172.329 142.633 178.369 142.633 186.429 Z " fill="rgb(255,255,255)"/></g><g><path d=" M 214.933 144.199 C 214.933 149.589 214.933 157.629 214.933 168.299 C 214.933 169.989 214.363 171.429 213.213 172.629 C 212.013 173.769 210.603 174.349 208.963 174.349 C 204.933 174.349 198.883 174.349 190.823 174.349 C 190.823 179.689 190.823 187.719 190.823 198.449 C 188.153 198.449 184.153 198.449 178.813 198.449 C 178.813 195.779 178.813 192.429 178.813 188.399 C 178.813 184.419 178.813 179.739 178.813 174.349 C 178.813 171.679 178.813 167.679 178.813 162.339 C 178.813 159.619 178.813 155.589 178.813 150.249 C 178.813 147.579 178.813 143.579 178.813 138.239 C 181.483 138.239 185.483 138.239 190.823 138.239 C 194.853 138.239 200.893 138.239 208.963 138.239 C 210.593 138.239 212.013 138.809 213.213 139.959 C 214.363 141.149 214.933 142.559 214.933 144.199 Z  M 190.833 162.329 C 193.553 162.329 197.583 162.329 202.923 162.329 C 202.923 161.839 202.923 161.129 202.923 160.209 C 202.923 157.979 202.923 154.649 202.923 150.239 C 200.253 150.239 196.223 150.239 190.833 150.239 C 190.833 152.909 190.833 156.939 190.833 162.329 Z " fill="rgb(255,255,255)"/></g><g><path d=" M 251.123 156.289 C 251.123 154.929 251.123 152.909 251.123 150.239 C 248.453 150.239 244.423 150.239 239.033 150.239 C 239.033 152.909 239.033 156.939 239.033 162.329 C 243.063 162.329 249.103 162.329 257.173 162.329 C 258.803 162.329 260.223 162.899 261.423 164.049 C 262.563 165.249 263.143 166.659 263.143 168.299 C 263.143 173.689 263.143 181.729 263.143 192.399 C 263.143 194.089 262.573 195.499 261.423 196.649 C 260.223 197.849 258.813 198.449 257.173 198.449 C 251.783 198.449 243.743 198.449 233.073 198.449 C 231.383 198.449 229.973 197.849 228.823 196.649 C 227.623 195.509 227.023 194.089 227.023 192.399 C 227.023 189.729 227.023 185.729 227.023 180.389 C 229.693 180.389 233.693 180.389 239.033 180.389 C 239.033 181.699 239.033 183.709 239.033 186.439 C 241.753 186.439 245.783 186.439 251.123 186.439 C 251.123 183.719 251.123 179.689 251.123 174.349 C 247.093 174.349 241.073 174.349 233.073 174.349 C 231.383 174.349 229.973 173.779 228.823 172.629 C 227.623 171.429 227.023 169.989 227.023 168.299 C 227.023 165.629 227.023 162.279 227.023 158.249 C 227.023 154.219 227.023 149.539 227.023 144.199 C 227.023 142.569 227.623 141.149 228.823 139.949 C 229.973 138.809 231.383 138.229 233.073 138.229 C 238.413 138.229 246.443 138.229 257.173 138.229 C 258.803 138.229 260.223 138.799 261.423 139.949 C 262.563 141.149 263.143 142.559 263.143 144.199 C 263.143 146.919 263.143 150.949 263.143 156.289 C 260.463 156.289 256.463 156.289 251.123 156.289 Z " fill="rgb(255,255,255)"/></g><g><path d=" M 311.333 144.199 C 311.333 154.929 311.333 170.999 311.333 192.399 C 311.333 194.089 310.763 195.499 309.613 196.649 C 308.413 197.849 307.003 198.449 305.363 198.449 C 301.333 198.449 295.283 198.449 287.223 198.449 C 285.913 198.449 283.923 198.449 281.263 198.449 C 279.903 198.449 277.883 198.449 275.213 198.449 C 275.213 191.749 275.213 183.389 275.213 173.369 C 275.213 163.349 275.213 151.639 275.213 138.239 C 277.553 138.239 281.063 138.239 285.753 138.239 C 286.083 138.239 286.573 138.239 287.223 138.239 C 291.253 138.239 297.293 138.239 305.363 138.239 C 306.993 138.239 308.413 138.809 309.613 139.959 C 310.763 141.149 311.333 142.559 311.333 144.199 Z  M 287.233 186.429 C 289.953 186.429 293.983 186.429 299.323 186.429 C 299.323 185.889 299.323 185.099 299.323 184.059 C 299.323 176.539 299.323 165.269 299.323 150.239 C 296.653 150.239 292.623 150.239 287.233 150.239 C 287.233 154.269 287.233 160.289 287.233 168.289 C 287.233 172.329 287.233 178.369 287.233 186.429 Z " fill="rgb(255,255,255)"/></g><g><path d=" M 352.263 168.299 C 353.893 168.299 355.313 168.899 356.513 170.099 C 357.653 171.239 358.233 172.659 358.233 174.349 C 358.233 179.689 358.233 187.719 358.233 198.449 C 355.563 198.449 351.563 198.449 346.223 198.449 C 346.223 193.109 346.223 185.079 346.223 174.349 C 343.553 174.349 339.523 174.349 334.133 174.349 C 334.133 179.689 334.133 187.719 334.133 198.449 C 331.463 198.449 327.463 198.449 322.123 198.449 C 322.123 193.109 322.123 185.079 322.123 174.349 C 322.123 171.679 322.123 167.679 322.123 162.339 C 322.123 159.669 322.123 156.319 322.123 152.289 C 322.123 148.259 322.123 143.579 322.123 138.239 C 324.793 138.239 328.793 138.239 334.133 138.239 C 338.163 138.239 344.203 138.239 352.273 138.239 C 353.903 138.239 355.323 138.809 356.523 139.959 C 357.663 141.159 358.243 142.569 358.243 144.209 C 358.243 148.239 358.243 154.289 358.243 162.349 C 358.243 163.979 357.673 165.399 356.523 166.599 C 355.313 167.719 353.903 168.299 352.263 168.299 Z  M 346.223 162.329 C 346.223 161.839 346.223 161.129 346.223 160.209 C 346.223 157.979 346.223 154.649 346.223 150.239 C 343.553 150.239 339.523 150.239 334.133 150.239 C 334.133 152.909 334.133 156.939 334.133 162.329 C 336.853 162.329 340.883 162.329 346.223 162.329 Z " fill="rgb(255,255,255)"/></g><g><path d=" M 406.433 144.199 C 406.433 154.929 406.433 170.999 406.433 192.399 C 406.433 194.089 405.863 195.499 404.713 196.649 C 403.513 197.849 402.103 198.449 400.463 198.449 C 395.073 198.449 387.033 198.449 376.363 198.449 C 374.673 198.449 373.263 197.849 372.113 196.649 C 370.913 195.509 370.313 194.089 370.313 192.399 C 370.313 188.369 370.313 182.319 370.313 174.259 C 370.313 170.939 370.313 166.799 370.313 161.839 C 370.313 156.769 370.313 150.889 370.313 144.189 C 370.313 142.559 370.913 141.139 372.113 139.939 C 373.263 138.799 374.673 138.219 376.363 138.219 C 381.703 138.219 389.733 138.219 400.463 138.219 C 402.093 138.219 403.513 138.789 404.713 139.939 C 405.853 141.149 406.433 142.559 406.433 144.199 Z  M 382.333 186.429 C 385.053 186.429 389.083 186.429 394.423 186.429 C 394.423 185.889 394.423 185.099 394.423 184.059 C 394.423 176.539 394.423 165.269 394.423 150.239 C 391.753 150.239 387.723 150.239 382.333 150.239 C 382.333 154.269 382.333 160.289 382.333 168.289 C 382.333 172.329 382.333 178.369 382.333 186.429 Z " fill="rgb(255,255,255)"/></g><g><path d=" M 418.523 138.229 C 420.533 138.229 424.543 138.229 430.533 138.229 C 430.533 145.749 430.533 160.809 430.533 183.409 C 430.533 185.919 430.533 190.929 430.533 198.439 C 428.573 198.439 424.573 198.439 418.523 198.439 C 418.523 191.739 418.523 183.379 418.523 173.359 C 418.523 163.339 418.523 151.629 418.523 138.229 Z " fill="rgb(255,255,255)"/></g><g><path d=" M 478.733 144.199 C 478.733 154.929 478.733 170.999 478.733 192.399 C 478.733 194.089 478.163 195.499 477.013 196.649 C 475.813 197.849 474.403 198.449 472.763 198.449 C 468.733 198.449 462.683 198.449 454.623 198.449 C 453.313 198.449 451.323 198.449 448.663 198.449 C 447.303 198.449 445.283 198.449 442.613 198.449 C 442.613 191.749 442.613 183.389 442.613 173.369 C 442.613 163.349 442.613 151.639 442.613 138.239 C 444.953 138.239 448.463 138.239 453.153 138.239 C 453.483 138.239 453.973 138.239 454.623 138.239 C 458.653 138.239 464.693 138.239 472.763 138.239 C 474.393 138.239 475.813 138.809 477.013 139.959 C 478.163 141.149 478.733 142.559 478.733 144.199 Z  M 454.633 186.429 C 457.353 186.429 461.383 186.429 466.723 186.429 C 466.723 185.889 466.723 185.099 466.723 184.059 C 466.723 176.539 466.723 165.269 466.723 150.239 C 464.053 150.239 460.023 150.239 454.633 150.239 C 454.633 154.269 454.633 160.289 454.633 168.289 C 454.633 172.329 454.633 178.369 454.633 186.429 Z " fill="rgb(255,255,255)"/></g></g><path d=" M 138.863 74.799 C 142.043 74.899 144.693 72.409 144.803 69.239 C 144.903 66.069 142.413 63.409 139.243 63.309 C 136.073 63.209 133.413 65.699 133.313 68.869 C 133.273 70.079 133.613 71.209 134.223 72.159 C 130.953 77.189 130.163 81.229 130.093 83.729 C 128.143 83.359 126.673 83.179 126.673 83.179 C 126.673 83.179 131.683 89.749 131.313 105.049 C 131.553 117.059 127.963 126.169 127.963 126.169 C 127.963 126.169 137.683 124.799 139.663 121.929 C 140.633 120.519 141.163 112.619 141.163 104.679 L 141.163 104.679 C 141.163 96.739 140.633 88.849 139.663 87.429 C 138.773 86.139 136.083 85.159 133.383 84.469 C 133.333 82.729 133.723 79.139 136.753 74.319 C 137.393 74.589 138.103 74.769 138.863 74.799 Z " fill="rgb(255,255,255)"/><path d=" M 13.493 105.039 C 13.123 89.739 18.133 83.169 18.133 83.169 C 18.133 83.169 16.663 83.349 14.713 83.719 C 14.633 81.219 13.853 77.179 10.583 72.149 C 11.193 71.199 11.533 70.069 11.493 68.859 C 11.393 65.689 8.733 63.189 5.563 63.299 C 2.393 63.399 -0.097 66.059 0.003 69.229 C 0.103 72.409 2.763 74.889 5.943 74.789 C 6.703 74.759 7.413 74.589 8.063 74.299 C 11.103 79.119 11.493 82.709 11.443 84.449 C 8.743 85.149 6.443 86.129 5.563 87.409 C 4.593 88.819 4.473 96.719 4.473 104.659 L 4.473 104.659 C 4.473 112.599 4.593 120.499 5.563 121.909 C 7.543 124.779 17.053 126.149 17.053 126.149 C 17.053 126.149 13.253 117.059 13.493 105.039 Z " fill="rgb(255,255,255)"/><path d=" M 127.673 95.349 C 123.743 71.079 89.793 60.809 72.873 60.809 C 55.963 60.809 22.003 71.079 18.073 95.349 C 15.613 110.559 20.653 134.669 29.343 142.549 C 33.123 145.969 54.303 161.599 72.303 161.599 C 72.493 161.599 72.673 161.589 72.863 161.589 C 73.053 161.589 73.233 161.599 73.423 161.599 C 91.423 161.599 112.603 145.969 116.383 142.549 C 125.103 134.669 130.133 110.559 127.673 95.349 Z  M 111.773 127.249 C 103.653 132.129 42.113 132.129 33.993 127.249 C 32.013 124.799 29.923 120.649 28.673 115.989 C 30.143 117.039 31.733 117.719 33.393 117.999 C 33.673 118.049 33.943 118.069 34.213 118.069 C 37.583 118.069 40.253 114.549 42.853 111.139 C 44.323 109.209 46.533 106.299 47.703 106.099 C 48.883 105.899 52.303 106.799 57.253 109.149 C 56.873 110.519 56.673 111.959 56.673 113.459 C 56.673 122.419 63.933 129.679 72.893 129.679 C 81.853 129.679 89.113 122.419 89.113 113.459 C 89.113 111.819 88.873 110.249 88.423 108.759 C 92.903 106.709 96.003 105.919 97.113 106.109 C 98.273 106.309 100.493 109.219 101.963 111.149 C 104.553 114.559 107.233 118.079 110.603 118.079 C 110.873 118.079 111.143 118.059 111.423 118.009 C 113.833 117.609 115.773 116.539 117.333 115.139 C 116.093 120.139 113.873 124.649 111.773 127.249 Z  M 64.293 113.649 C 64.293 108.779 68.243 104.829 73.113 104.829 C 77.983 104.829 81.933 108.779 81.933 113.649 C 81.933 118.519 77.983 122.469 73.113 122.469 C 68.243 122.459 64.293 118.509 64.293 113.649 Z  M 117.323 106.919 C 115.723 110.729 113.473 112.899 110.623 113.379 C 110.623 113.379 110.163 113.419 109.043 112.349 C 107.973 111.339 106.803 109.799 105.673 108.309 C 103.203 105.069 100.873 101.999 97.893 101.489 C 95.083 101.009 90.553 102.609 86.413 104.519 C 83.513 100.129 78.533 97.239 72.883 97.239 C 67.083 97.239 61.993 100.289 59.123 104.869 C 54.793 102.809 49.873 100.969 46.893 101.489 C 43.913 101.999 41.583 105.069 39.113 108.309 C 37.983 109.799 36.813 111.339 35.743 112.349 C 34.613 113.419 34.163 113.379 34.163 113.379 C 31.363 112.909 29.153 110.439 27.503 107.559 C 27.513 105.999 27.663 103.979 27.983 102.499 C 28.503 100.089 32.323 97.859 37.823 94.859 L 107.923 94.859 C 113.423 97.859 117.243 100.089 117.773 102.499 C 117.903 103.099 118.003 103.959 118.083 104.579 C 117.873 105.249 117.633 106.199 117.323 106.919 Z " fill="rgb(255,255,255)"/></g><g><path d=" M 97.314 22.165 C 98.375 21.103 101.988 22.083 105.461 23.386 C 111.885 27.092 117.262 31.031 117.262 31.031 C 117.262 31.031 106.179 0 84.015 0 C 41.902 0 41.902 66.494 41.902 66.494 L 42.606 65.752 C 42.148 67.614 41.902 68.711 41.902 68.711 L 106.179 64.278 C 106.179 44.33 90.305 29.173 97.314 22.165 Z " fill="rgb(255,61,0)"/><path d=" M 97.314 22.165 C 98.377 21.101 101.997 22.087 105.477 23.395 C 96.148 18.018 84.618 13.157 84.059 21.542 C 84.527 40.114 92.881 44.888 92.881 64.278 C 93.461 68.341 95.569 71.027 98.353 72.791 C 103.125 71.284 106.179 68.624 106.179 64.278 C 106.179 44.33 90.305 29.173 97.314 22.165 Z " fill="rgb(221,44,0)"/><g><rect x="39.685" y="57.628" width="68.711" height="15.515" transform="matrix(1,0,0,1,0,0)" fill="rgb(240,240,240)"/><circle vector-effect="non-scaling-stroke" cx="47.4428192136351" cy="58.73661734378885" r="3.324714189271063" fill="rgb(240,240,240)"/><circle vector-effect="non-scaling-stroke" cx="40.79339083509296" cy="58.73661734378885" r="3.324714189271063" fill="rgb(240,240,240)"/><circle vector-effect="non-scaling-stroke" cx="54.09224759217722" cy="58.73661734378885" r="3.324714189271063" fill="rgb(240,240,240)"/><circle vector-effect="non-scaling-stroke" cx="60.741675970719356" cy="58.73661734378885" r="3.3247141892710665" fill="rgb(240,240,240)"/><circle vector-effect="non-scaling-stroke" cx="67.39110434926147" cy="58.73661734378885" r="3.324714189271063" fill="rgb(240,240,240)"/><circle vector-effect="non-scaling-stroke" cx="47.4428192136351" cy="72.0354741008731" r="3.324714189271063" fill="rgb(240,240,240)"/><circle vector-effect="non-scaling-stroke" cx="54.09224759217722" cy="72.0354741008731" r="3.324714189271063" fill="rgb(240,240,240)"/><circle vector-effect="non-scaling-stroke" cx="60.741675970719356" cy="72.0354741008731" r="3.3247141892710665" fill="rgb(240,240,240)"/><circle vector-effect="non-scaling-stroke" cx="67.39110434926147" cy="72.0354741008731" r="3.324714189271063" fill="rgb(240,240,240)"/><circle vector-effect="non-scaling-stroke" cx="74.04053272780362" cy="58.73661734378885" r="3.324714189271063" fill="rgb(240,240,240)"/><circle vector-effect="non-scaling-stroke" cx="74.04053272780362" cy="72.0354741008731" r="3.324714189271063" fill="rgb(240,240,240)"/><circle vector-effect="non-scaling-stroke" cx="80.68996110634578" cy="72.0354741008731" r="3.324714189271063" fill="rgb(240,240,240)"/><circle vector-effect="non-scaling-stroke" cx="107.28767462051428" cy="65.38604572233098" r="3.324714189271077" fill="rgb(240,240,240)"/><circle vector-effect="non-scaling-stroke" cx="80.68996110634578" cy="58.73661734378885" r="3.324714189271063" fill="rgb(240,240,240)"/><circle vector-effect="non-scaling-stroke" cx="87.33938948488787" cy="72.0354741008731" r="3.324714189271077" fill="rgb(240,240,240)"/><circle vector-effect="non-scaling-stroke" cx="87.33938948488787" cy="58.73661734378885" r="3.324714189271077" fill="rgb(240,240,240)"/><circle vector-effect="non-scaling-stroke" cx="93.98881786343003" cy="72.0354741008731" r="3.324714189271077" fill="rgb(240,240,240)"/><circle vector-effect="non-scaling-stroke" cx="93.98881786343003" cy="58.73661734378885" r="3.324714189271077" fill="rgb(240,240,240)"/><circle vector-effect="non-scaling-stroke" cx="100.63824624197215" cy="72.0354741008731" r="3.324714189271077" fill="rgb(240,240,240)"/><circle vector-effect="non-scaling-stroke" cx="100.63824624197215" cy="58.73661734378885" r="3.324714189271077" fill="rgb(240,240,240)"/><circle vector-effect="non-scaling-stroke" cx="107.28767462051428" cy="72.0354741008731" r="3.324714189271077" fill="rgb(240,240,240)"/><circle vector-effect="non-scaling-stroke" cx="107.28767462051428" cy="58.73661734378885" r="3.324714189271077" fill="rgb(240,240,240)"/><circle vector-effect="non-scaling-stroke" cx="40.79339083509296" cy="65.38604572233098" r="3.324714189271063" fill="rgb(240,240,240)"/><circle vector-effect="non-scaling-stroke" cx="40.79339083509296" cy="72.0354741008731" r="3.324714189271063" fill="rgb(240,240,240)"/><ellipse vector-effect="non-scaling-stroke" cx="113.05051254858412" cy="28.84743678224195" rx="7.954932816862566" ry="7.895087961455694" fill="rgb(240,240,240)"/><path d=" M 111.057 39.882 C 109.571 39.603 108.461 38.356 108.355 36.848 C 107.016 37.424 105.385 37.047 104.425 35.85 C 103.535 34.753 103.445 33.209 104.201 32.016 C 102.867 31.546 101.973 30.286 101.969 28.871 C 101.969 27.346 103.018 26.056 104.445 25.683 C 103.579 24.444 103.663 22.774 104.649 21.627 C 105.627 20.491 107.238 20.139 108.601 20.763 C 108.756 19.3 109.873 18.059 111.392 17.813 C 112.879 17.559 114.353 18.333 114.989 19.701 C 116.075 18.649 117.732 18.458 119.03 19.234 C 120.346 20.009 120.949 21.563 120.548 22.957 C 122.022 22.869 123.454 23.733 123.944 25.194 L 123.944 25.171 C 124.445 26.597 123.921 28.182 122.669 29.028 C 123.877 29.893 124.389 31.464 123.831 32.883 C 123.29 34.293 121.871 35.165 120.368 35.01 C 120.703 36.429 120.076 37.958 118.717 38.712 C 117.392 39.422 115.758 39.178 114.699 38.111 C 114.14 39.22 112.979 39.929 111.702 39.929 C 111.483 39.927 111.281 39.927 111.057 39.882 Z  M 112.354 33.346 L 112.354 33.368 C 113.067 33.501 113.648 33.833 114.118 34.299 C 114.408 33.723 114.878 33.213 115.503 32.88 C 116.106 32.548 116.798 32.415 117.445 32.481 C 117.279 31.826 117.327 31.135 117.582 30.509 C 117.826 29.844 118.274 29.334 118.81 28.957 C 118.255 28.565 117.841 28.006 117.627 27.361 C 117.403 26.696 117.381 26.009 117.56 25.389 C 116.911 25.433 116.221 25.3 115.616 24.945 C 115.037 24.589 114.573 24.075 114.278 23.463 C 113.81 23.928 113.209 24.258 112.513 24.367 C 111.8 24.482 111.128 24.367 110.527 24.103 C 110.461 24.746 110.213 25.389 109.769 25.921 C 109.299 26.453 108.716 26.805 108.069 26.982 C 108.448 27.512 108.672 28.179 108.672 28.866 C 108.672 29.529 108.493 30.13 108.158 30.637 C 108.741 30.839 109.253 31.191 109.678 31.703 C 110.102 32.255 110.35 32.898 110.392 33.565 C 110.806 33.378 111.254 33.28 111.709 33.277 C 111.928 33.282 112.152 33.304 112.354 33.346 Z " fill="rgb(240,240,240)"/></g></g></g></svg>